<svg id="svg" version="1.1" xmlns="http://www.w3.org/2000/svg" xmlns:xlink="http://www.w3.org/1999/xlink" width="400" height="400" viewBox="0, 0, 400,400"><g id="svgg"><path id="path0" d="M0.000 200.000 L 0.000 400.000 200.000 400.000 L 400.000 400.000 400.000 200.000 L 400.000 0.000 200.000 0.000 L 0.000 0.000 0.000 200.000 M217.800 123.770 C 218.240 124.050,219.257 124.401,220.060 124.550 C 220.863 124.699,221.740 125.086,222.009 125.411 C 222.278 125.735,222.691 126.000,222.927 126.000 C 224.366 126.000,231.413 132.518,231.848 134.250 C 231.971 134.741,232.326 135.239,232.636 135.359 C 232.946 135.478,233.201 135.806,233.202 136.087 C 233.204 136.369,233.497 137.140,233.854 137.800 C 236.416 142.538,236.339 153.614,233.710 158.400 C 232.157 161.228,231.113 162.800,230.787 162.800 C 230.604 162.800,230.340 163.160,230.200 163.600 C 229.321 166.371,221.200 160.072,221.200 156.620 C 221.200 155.126,221.776 153.623,222.539 153.128 C 223.459 152.530,223.093 143.499,222.098 142.234 C 221.604 141.606,221.200 140.756,221.200 140.346 C 221.200 139.936,220.936 139.600,220.614 139.600 C 220.292 139.600,219.835 139.240,219.600 138.800 C 219.365 138.360,218.932 138.000,218.640 138.000 C 218.347 138.000,217.679 137.676,217.154 137.281 C 214.861 135.552,207.216 135.384,205.200 137.019 C 204.870 137.286,204.150 137.639,203.600 137.803 C 202.202 138.220,180.000 159.832,180.000 160.776 C 180.000 161.009,179.852 161.200,179.671 161.200 C 178.449 161.200,175.378 168.781,175.724 170.943 C 176.021 172.798,177.225 176.048,178.065 177.262 C 178.469 177.846,178.800 178.443,178.800 178.589 C 178.800 181.717,190.943 185.516,193.325 183.133 C 193.692 182.766,194.519 182.350,195.162 182.208 C 195.806 182.067,196.433 181.692,196.554 181.376 C 196.676 181.059,196.952 180.800,197.169 180.800 C 197.386 180.800,199.272 179.094,201.361 177.008 C 205.373 173.003,207.164 172.121,208.055 173.712 C 208.267 174.091,208.756 174.400,209.143 174.400 C 210.569 174.400,211.309 175.418,211.642 177.837 C 211.978 180.281,211.505 183.200,210.772 183.200 C 210.554 183.200,210.262 183.515,210.123 183.900 C 209.744 184.953,203.318 191.200,202.613 191.200 C 202.276 191.200,202.000 191.458,202.000 191.773 C 202.000 192.088,201.595 192.473,201.100 192.628 C 200.605 192.783,199.771 193.245,199.246 193.655 C 198.721 194.065,198.016 194.400,197.678 194.400 C 197.340 194.400,196.777 194.659,196.427 194.976 C 194.233 196.961,181.371 196.965,179.178 194.980 C 178.826 194.661,178.236 194.400,177.869 194.400 C 177.501 194.400,176.840 194.040,176.400 193.600 C 175.960 193.160,175.359 192.800,175.064 192.800 C 174.339 192.800,169.149 187.639,168.401 186.174 C 168.071 185.528,167.576 184.856,167.301 184.680 C 167.025 184.504,166.800 184.099,166.800 183.779 C 166.800 183.459,166.440 182.525,166.000 181.704 C 165.560 180.884,165.200 179.933,165.200 179.592 C 165.200 179.251,164.840 177.948,164.400 176.696 C 162.450 171.149,164.673 157.863,167.882 155.880 C 168.167 155.704,168.400 155.393,168.400 155.188 C 168.400 153.728,192.596 129.813,196.609 127.306 C 202.887 123.384,214.223 121.493,217.800 123.770 M211.789 157.153 C 213.103 157.374,214.383 157.835,214.633 158.178 C 214.883 158.520,215.466 158.800,215.929 158.800 C 216.391 158.800,217.091 159.138,217.484 159.550 C 217.878 159.963,218.584 160.419,219.054 160.563 C 220.043 160.866,225.106 165.788,225.664 166.989 C 225.872 167.435,226.478 168.520,227.011 169.400 C 228.335 171.584,228.800 172.700,228.800 173.695 C 228.800 174.158,229.115 174.885,229.500 175.310 C 230.505 176.421,230.548 188.503,229.552 190.023 C 229.196 190.567,228.774 191.606,228.615 192.333 C 228.455 193.060,228.072 193.751,227.762 193.870 C 227.453 193.988,227.200 194.329,227.200 194.627 C 227.200 195.823,218.854 204.866,213.795 209.151 C 212.918 209.895,209.113 213.540,205.341 217.251 C 201.568 220.963,198.283 224.000,198.041 224.000 C 197.798 224.000,197.600 224.184,197.600 224.409 C 197.600 224.633,197.105 225.036,196.500 225.304 C 195.895 225.572,195.162 226.017,194.872 226.295 C 194.582 226.572,193.862 226.913,193.272 227.053 C 192.682 227.193,191.910 227.559,191.555 227.866 C 191.200 228.173,189.940 228.534,188.755 228.667 C 187.570 228.801,186.387 229.077,186.128 229.281 C 185.193 230.015,181.282 230.139,179.503 229.490 C 178.567 229.148,176.947 228.753,175.905 228.611 C 174.862 228.469,173.772 228.115,173.482 227.825 C 173.192 227.535,172.368 227.169,171.650 227.011 C 170.933 226.853,170.249 226.472,170.130 226.162 C 170.012 225.853,169.665 225.600,169.361 225.600 C 169.056 225.600,168.582 225.240,168.307 224.800 C 168.032 224.360,167.592 224.000,167.329 224.000 C 166.792 224.000,162.678 219.532,161.800 217.995 C 161.195 216.936,160.622 215.780,160.217 214.800 C 160.080 214.470,159.708 213.750,159.390 213.200 C 159.072 212.650,158.809 211.547,158.806 210.749 C 158.803 209.951,158.530 208.651,158.200 207.862 C 157.444 206.051,157.427 202.476,158.166 200.508 C 158.478 199.679,158.826 198.196,158.940 197.214 C 159.054 196.232,159.429 195.222,159.773 194.970 C 160.118 194.718,160.400 194.125,160.400 193.652 C 160.400 193.179,160.760 192.484,161.200 192.107 C 161.640 191.730,162.000 191.212,162.000 190.955 C 162.000 190.241,163.298 188.899,164.257 188.621 C 164.949 188.421,165.815 189.062,168.757 191.958 C 172.794 195.929,173.315 197.311,171.600 199.491 C 170.565 200.807,170.397 208.368,171.385 209.187 C 171.706 209.454,172.091 210.061,172.240 210.536 C 172.808 212.345,174.940 213.900,179.514 215.842 C 182.678 217.186,190.006 215.180,191.720 212.500 C 191.896 212.225,192.280 212.000,192.573 212.000 C 192.867 212.000,193.201 211.640,193.316 211.200 C 193.431 210.760,193.812 210.400,194.163 210.400 C 194.513 210.400,194.800 210.199,194.800 209.954 C 194.800 209.439,198.722 205.600,199.248 205.600 C 199.442 205.600,199.600 205.330,199.600 205.000 C 199.600 204.670,199.786 204.400,200.014 204.400 C 200.562 204.400,215.200 189.642,215.200 189.090 C 215.200 188.855,215.493 188.339,215.852 187.943 C 216.210 187.547,216.652 186.543,216.834 185.711 C 217.015 184.880,217.287 183.687,217.436 183.060 C 218.289 179.490,213.625 170.800,210.857 170.800 C 210.484 170.800,209.757 170.505,209.244 170.145 C 208.063 169.319,205.758 169.323,204.200 170.155 C 203.540 170.507,202.721 170.796,202.381 170.798 C 202.040 170.799,201.012 171.520,200.096 172.400 C 199.180 173.280,198.244 174.000,198.015 174.000 C 197.787 174.000,197.600 174.198,197.600 174.440 C 197.600 175.732,190.689 181.600,189.168 181.600 C 186.749 181.600,183.631 179.242,181.632 175.900 L 180.735 174.400 181.660 172.900 C 183.647 169.677,191.603 161.383,193.500 160.556 C 194.215 160.244,194.800 159.815,194.800 159.602 C 194.800 159.389,195.295 159.098,195.900 158.954 C 196.505 158.810,197.290 158.441,197.645 158.134 C 197.999 157.827,199.329 157.407,200.599 157.200 C 201.870 156.993,203.020 156.712,203.155 156.576 C 203.458 156.269,208.568 156.610,211.789 157.153 M242.100 239.995 C 243.355 240.004,244.400 241.470,244.400 243.223 C 244.400 247.738,237.799 248.679,236.828 244.302 C 236.175 241.357,237.937 239.264,240.600 239.822 C 241.040 239.914,241.715 239.992,242.100 239.995 M131.377 242.500 C 131.658 242.885,132.152 243.200,132.474 243.200 C 133.261 243.200,134.532 244.625,135.612 246.717 C 136.743 248.907,136.519 250.426,134.634 253.373 C 133.851 254.598,133.377 255.600,133.580 255.600 C 134.230 255.600,136.315 257.770,136.465 258.600 C 136.548 259.066,136.983 259.453,137.504 259.528 L 138.400 259.656 138.400 250.871 C 138.400 240.857,138.095 241.600,142.204 241.600 C 146.273 241.600,146.049 240.715,145.915 256.276 C 145.783 271.675,146.022 270.800,141.952 270.800 C 138.989 270.800,138.400 270.237,138.400 267.404 C 138.400 264.168,137.271 262.611,136.584 264.900 C 136.227 266.089,133.204 269.200,132.406 269.200 C 132.060 269.200,131.333 269.515,130.789 269.900 C 129.399 270.884,117.040 271.179,115.800 270.258 C 114.747 269.477,114.533 243.486,115.569 242.237 C 116.428 241.202,130.601 241.437,131.377 242.500 M197.669 242.262 C 198.298 242.831,198.400 243.578,198.400 247.595 C 198.400 250.165,198.512 252.379,198.649 252.515 C 198.930 252.797,201.200 250.653,201.200 250.106 C 201.200 248.447,208.132 247.092,209.520 248.480 C 210.411 249.371,209.990 252.000,208.957 252.000 C 208.651 252.000,208.400 252.206,208.400 252.457 C 208.400 252.708,207.632 253.833,206.694 254.957 C 203.696 258.547,203.809 258.326,204.545 259.139 C 204.905 259.537,205.200 260.046,205.200 260.270 C 205.200 260.493,205.560 261.002,206.000 261.400 C 206.440 261.798,206.800 262.456,206.800 262.862 C 206.800 263.268,206.950 263.600,207.133 263.600 C 207.781 263.600,210.000 267.529,210.000 268.676 C 210.000 272.635,202.813 271.390,200.906 267.100 C 200.637 266.495,200.254 266.000,200.055 266.000 C 199.856 266.000,199.582 265.595,199.447 265.100 C 199.085 263.779,198.414 264.964,198.406 266.938 C 198.393 270.312,193.844 272.328,190.976 270.233 C 189.874 269.427,189.535 243.322,190.613 242.244 C 191.533 241.324,196.647 241.338,197.669 242.262 M227.491 242.500 C 227.915 242.885,228.519 243.200,228.832 243.200 C 230.550 243.200,234.594 248.368,235.035 251.127 C 235.183 252.057,235.461 252.914,235.653 253.032 C 236.109 253.315,236.104 258.289,235.646 258.571 C 235.452 258.692,235.165 259.640,235.009 260.679 C 234.853 261.718,234.382 263.005,233.963 263.538 C 233.543 264.071,233.200 264.692,233.200 264.918 C 233.200 265.587,229.482 268.808,228.400 269.075 C 227.850 269.211,226.773 269.655,226.006 270.061 C 223.907 271.173,213.036 271.137,211.689 270.013 L 210.777 269.253 210.754 256.139 L 210.731 243.024 211.640 242.287 C 212.957 241.221,226.276 241.400,227.491 242.500 M162.984 249.024 C 163.873 249.552,164.960 250.436,165.400 250.988 C 165.840 251.541,166.515 252.382,166.900 252.857 C 167.285 253.333,167.600 254.040,167.600 254.428 C 167.600 256.091,168.044 256.452,168.843 255.437 C 169.259 254.907,169.600 254.212,169.600 253.892 C 169.600 253.071,171.859 250.316,173.120 249.600 C 173.701 249.270,174.393 248.801,174.658 248.558 C 175.827 247.488,183.110 247.612,184.439 248.725 C 187.180 251.020,188.000 251.795,188.000 252.090 C 188.000 252.278,188.383 252.951,188.851 253.584 C 191.251 256.830,184.991 259.803,182.480 256.610 C 179.262 252.519,175.527 255.756,176.850 261.488 C 177.566 264.591,180.824 264.875,182.486 261.979 C 183.361 260.454,188.423 260.148,189.186 261.574 C 189.853 262.819,189.669 264.731,188.800 265.600 C 188.360 266.040,188.000 266.550,188.000 266.732 C 188.000 267.034,187.258 267.718,184.439 270.016 C 183.270 270.969,175.680 271.191,174.716 270.300 C 174.419 270.025,173.701 269.530,173.120 269.200 C 171.859 268.484,169.600 265.729,169.600 264.908 C 169.600 264.588,169.259 263.893,168.843 263.363 C 168.044 262.348,167.600 262.709,167.600 264.372 C 167.600 264.760,167.285 265.466,166.900 265.940 C 164.607 268.765,164.204 269.200,163.882 269.200 C 163.686 269.200,163.069 269.560,162.509 270.000 C 160.965 271.214,154.115 271.171,152.047 269.934 C 144.522 265.432,144.347 254.032,151.727 249.024 C 154.249 247.312,160.102 247.313,162.984 249.024 M244.600 248.344 C 244.820 248.346,246.260 248.265,247.800 248.163 C 249.340 248.062,250.784 248.119,251.010 248.289 C 251.767 248.864,253.600 252.864,253.600 253.943 C 253.600 254.531,253.960 255.684,254.400 256.504 C 254.840 257.325,255.218 258.313,255.239 258.699 C 255.261 259.084,255.486 258.680,255.739 257.800 C 255.993 256.920,256.425 255.807,256.700 255.326 C 256.975 254.846,257.200 254.053,257.200 253.565 C 257.200 250.207,259.415 248.000,262.784 248.000 C 265.621 248.000,266.120 248.491,266.059 251.223 C 266.031 252.453,266.167 253.144,266.407 252.996 C 266.623 252.862,266.800 252.559,266.800 252.322 C 266.800 249.555,277.447 246.394,279.671 248.501 C 279.962 248.776,280.874 249.451,281.697 250.001 C 282.521 250.550,283.196 251.128,283.197 251.284 C 283.199 251.441,283.533 251.891,283.940 252.284 C 285.928 254.207,286.600 260.643,284.880 261.292 L 283.683 261.744 284.492 262.839 C 286.049 264.945,284.640 267.619,280.753 269.937 C 278.931 271.023,272.050 271.224,271.213 270.215 C 270.946 269.894,270.346 269.510,269.879 269.362 C 268.932 269.061,266.800 267.069,266.800 266.485 C 266.800 266.277,266.402 265.602,265.915 264.983 C 265.106 263.954,265.033 263.433,265.054 258.829 C 265.075 254.471,265.019 254.020,264.639 255.449 C 264.398 256.355,263.998 257.345,263.752 257.649 C 263.506 257.952,263.176 258.920,263.018 259.800 C 262.861 260.680,262.502 261.670,262.220 262.000 C 261.939 262.330,261.602 263.297,261.471 264.150 C 261.341 265.002,260.957 266.006,260.617 266.381 C 260.278 266.756,260.000 267.462,260.000 267.950 C 260.000 270.178,254.398 271.997,252.163 270.494 C 251.536 270.073,249.740 266.351,249.393 264.754 C 249.230 264.009,248.851 263.045,248.549 262.611 C 248.247 262.177,248.000 261.495,248.000 261.095 C 248.000 260.695,247.640 259.662,247.200 258.800 C 246.760 257.938,246.400 256.878,246.400 256.445 C 246.400 256.011,246.105 255.362,245.744 255.001 C 245.383 254.640,244.951 253.772,244.785 253.072 C 244.615 252.358,244.464 255.647,244.441 260.569 C 244.392 270.989,244.464 270.800,240.567 270.800 C 236.655 270.800,236.800 271.233,236.800 259.545 C 236.800 247.298,236.591 247.876,240.930 248.140 C 242.728 248.250,244.380 248.342,244.600 248.344 M122.400 250.648 L 122.400 252.896 124.792 252.723 C 127.582 252.521,127.564 252.534,127.868 250.659 C 128.143 248.962,127.224 248.400,124.174 248.400 L 122.400 248.400 122.400 250.648 M219.067 249.100 C 218.779 249.580,218.755 259.196,219.036 261.500 L 219.292 263.600 221.682 263.600 C 223.991 263.600,226.400 262.309,226.400 261.073 C 226.400 260.891,226.670 260.473,227.000 260.143 C 227.446 259.697,227.600 258.601,227.600 255.869 L 227.600 252.196 226.001 250.498 C 224.441 248.842,219.786 247.903,219.067 249.100 M274.500 254.670 C 273.115 255.636,273.415 256.000,275.600 256.000 C 277.814 256.000,278.099 255.619,276.614 254.646 C 275.454 253.886,275.627 253.884,274.500 254.670 M155.994 255.058 C 153.366 255.773,154.037 263.346,156.775 263.859 C 159.438 264.359,160.182 263.485,160.316 259.702 C 160.469 255.372,159.332 254.150,155.994 255.058 M122.667 259.467 C 122.520 259.613,122.400 260.603,122.400 261.667 L 122.400 263.600 125.171 263.600 C 128.299 263.600,129.200 263.065,129.200 261.211 C 129.200 259.644,123.903 258.230,122.667 259.467 M273.642 261.966 C 272.836 262.476,273.344 263.414,274.827 264.154 C 276.080 264.778,277.347 264.414,279.199 262.898 C 280.258 262.031,274.946 261.140,273.642 261.966 " stroke="none" fill="#fbfbfc" fill-rule="evenodd"></path><path id="path1" d="M227.119 139.939 L 225.469 141.478 225.390 146.061 C 225.311 150.700,225.134 151.444,223.176 155.366 L 222.394 156.931 225.183 159.666 C 228.543 162.959,228.737 162.980,230.556 160.239 C 233.555 155.722,235.486 143.229,233.298 142.499 C 233.032 142.411,232.612 141.587,232.366 140.669 C 231.597 137.808,229.688 137.543,227.119 139.939 M203.446 158.980 C 203.031 159.303,201.861 159.690,200.846 159.840 C 199.831 159.990,198.571 160.447,198.046 160.856 C 197.521 161.265,196.906 161.600,196.680 161.600 C 196.150 161.600,195.862 161.858,190.592 167.054 C 184.052 173.501,182.336 176.000,184.447 176.000 C 184.641 176.000,184.800 176.194,184.800 176.431 C 184.800 177.388,187.246 179.282,188.740 179.483 C 190.238 179.684,190.342 179.608,195.059 174.843 C 197.697 172.180,199.985 170.000,200.144 170.000 C 200.303 170.000,200.980 169.595,201.650 169.100 C 203.501 167.732,209.530 167.801,211.730 169.216 C 216.703 172.414,218.961 176.404,218.965 182.000 C 218.968 187.880,218.331 188.843,207.155 199.832 C 189.239 217.449,188.831 217.745,182.557 217.745 C 173.235 217.745,165.581 207.691,169.200 200.200 C 170.367 197.785,170.238 196.380,168.742 195.196 C 168.051 194.648,167.117 193.852,166.668 193.426 C 165.664 192.474,162.605 195.499,161.411 198.627 C 161.039 199.602,160.569 200.400,160.367 200.400 C 159.883 200.400,159.889 209.884,160.373 210.183 C 160.578 210.310,160.950 211.398,161.200 212.600 C 161.450 213.802,161.810 214.883,162.002 215.001 C 162.193 215.119,162.630 215.779,162.974 216.468 C 167.388 225.316,179.995 230.189,189.600 226.760 C 194.943 224.853,197.149 223.225,205.187 215.264 C 208.666 211.819,214.064 206.574,217.182 203.608 C 224.920 196.250,227.165 192.942,228.351 187.147 L 229.209 182.957 228.373 178.779 C 227.624 175.038,226.654 172.138,225.569 170.400 C 225.363 170.070,224.979 169.350,224.716 168.800 C 224.034 167.373,218.275 161.739,217.147 161.395 C 216.626 161.235,215.930 160.875,215.600 160.593 C 213.753 159.016,204.906 157.842,203.446 158.980 M171.843 180.023 C 170.609 181.355,169.600 182.686,169.600 182.979 C 169.600 185.178,174.308 190.819,177.100 191.964 C 177.815 192.257,178.400 192.655,178.400 192.849 C 178.400 193.042,178.674 193.200,179.010 193.200 C 179.345 193.200,180.644 193.560,181.896 194.000 C 186.224 195.521,195.073 194.696,197.631 192.534 C 197.979 192.240,198.405 192.000,198.579 192.000 C 200.046 192.000,204.179 186.768,203.825 185.358 C 203.373 183.555,201.607 181.112,200.941 181.367 C 200.608 181.495,200.182 181.600,199.996 181.600 C 199.810 181.600,199.419 181.834,199.129 182.121 C 195.907 185.295,184.116 186.662,182.425 184.058 C 182.301 183.868,181.660 183.428,181.000 183.082 C 179.722 182.412,178.600 181.411,176.490 179.059 C 174.757 177.128,174.468 177.188,171.843 180.023 M238.821 241.778 C 237.077 243.634,238.677 245.719,241.335 245.052 C 242.817 244.680,243.245 243.229,242.264 241.902 C 241.257 240.540,240.026 240.495,238.821 241.778 M192.257 243.680 C 192.122 244.186,192.008 249.952,192.005 256.492 L 192.000 268.385 192.952 268.624 C 195.755 269.327,196.181 268.905,196.409 265.200 C 196.769 259.340,197.612 259.377,201.710 265.432 L 203.854 268.600 205.827 268.600 C 208.457 268.600,208.375 268.033,205.015 263.008 C 203.577 260.856,202.400 258.951,202.400 258.774 C 202.400 258.251,203.226 256.234,203.532 256.008 C 204.887 255.009,207.973 250.629,207.523 250.344 C 205.636 249.147,203.340 250.044,201.221 252.804 C 197.040 258.252,196.683 257.986,196.400 249.200 L 196.200 243.000 194.352 242.880 C 192.712 242.774,192.476 242.864,192.257 243.680 M212.981 243.704 C 212.875 243.981,212.836 249.696,212.894 256.404 L 213.000 268.600 219.600 268.600 C 225.875 268.600,226.279 268.552,227.800 267.632 C 237.089 262.010,235.726 246.173,225.748 243.789 C 222.666 243.053,213.255 242.990,212.981 243.704 M140.612 244.541 C 139.923 245.046,139.869 245.878,139.836 256.641 L 139.800 268.200 141.739 268.200 L 143.679 268.200 143.630 258.000 C 143.562 243.626,143.323 242.560,140.612 244.541 M126.300 244.812 C 126.795 245.011,127.200 245.321,127.200 245.499 C 127.200 245.678,127.738 246.028,128.396 246.276 C 129.753 246.788,130.414 248.143,130.372 250.326 C 130.306 253.761,128.408 255.200,123.945 255.200 C 119.881 255.200,119.600 254.844,119.600 249.711 C 119.600 246.076,119.365 245.438,118.436 246.556 C 117.903 247.199,116.885 266.602,117.325 267.748 C 117.794 268.971,129.565 268.527,131.842 267.201 C 133.755 266.087,135.203 263.664,135.201 261.582 C 135.200 260.193,132.702 256.800,131.680 256.800 C 129.977 256.800,130.232 254.799,132.201 252.727 C 135.505 249.248,132.979 244.374,127.900 244.425 C 125.995 244.445,125.614 244.537,126.300 244.812 M224.742 247.608 C 231.740 250.784,230.920 263.044,223.592 264.802 C 221.346 265.341,218.706 265.152,217.784 264.387 C 217.151 263.862,216.897 248.672,217.506 247.760 C 218.295 246.579,222.289 246.495,224.742 247.608 M175.967 250.131 C 169.668 252.193,168.184 262.933,173.582 267.389 C 177.933 270.981,185.346 269.496,187.176 264.666 C 188.150 262.097,184.815 261.909,182.446 264.400 C 180.326 266.629,178.548 266.642,176.353 264.447 L 174.800 262.894 174.800 259.511 C 174.800 253.416,178.732 250.652,182.311 254.231 C 185.662 257.582,188.976 255.496,185.723 252.085 C 183.484 249.738,179.565 248.953,175.967 250.131 M239.085 250.105 L 238.000 250.467 238.000 259.219 C 238.000 268.865,237.982 268.800,240.600 268.800 C 243.211 268.800,243.200 268.841,243.200 259.435 C 243.200 253.083,243.072 250.797,242.700 250.503 C 241.923 249.888,240.278 249.707,239.085 250.105 M272.302 250.081 C 262.687 252.635,265.811 269.617,275.892 269.602 C 278.586 269.598,283.600 266.441,283.600 264.749 C 283.600 264.024,279.734 264.380,278.691 265.200 C 276.171 267.182,271.761 265.446,271.512 262.375 L 271.400 261.000 277.372 260.889 C 284.475 260.757,284.580 260.707,284.196 257.631 C 283.419 251.413,278.660 248.392,272.302 250.081 M153.796 250.371 C 152.645 250.647,150.400 252.373,150.400 252.983 C 150.400 253.143,150.040 253.731,149.600 254.291 C 148.388 255.832,148.429 262.683,149.662 264.753 C 154.751 273.294,166.567 269.539,166.507 259.400 C 166.465 252.083,161.464 248.531,153.796 250.371 M246.522 250.316 C 246.165 250.543,246.302 251.333,247.055 253.410 C 247.611 254.945,248.314 256.920,248.617 257.800 C 248.920 258.680,249.638 260.660,250.213 262.200 C 250.787 263.740,251.439 265.630,251.660 266.400 C 252.643 269.813,258.364 269.899,258.983 266.511 C 259.135 265.680,259.486 264.640,259.764 264.200 C 260.042 263.760,260.492 262.502,260.764 261.405 C 261.036 260.308,261.405 259.228,261.583 259.005 C 261.762 258.782,262.039 257.970,262.200 257.200 C 262.361 256.430,262.735 255.350,263.032 254.800 C 264.892 251.357,264.523 250.016,261.715 250.006 C 260.070 250.000,260.020 250.039,259.576 251.700 C 259.326 252.635,258.979 253.580,258.804 253.800 C 258.630 254.020,258.275 255.232,258.016 256.493 C 257.758 257.754,257.399 258.877,257.218 258.989 C 257.038 259.100,256.776 259.805,256.635 260.555 C 256.031 263.771,254.728 263.068,253.381 258.800 C 252.999 257.590,252.352 255.639,251.943 254.464 C 251.534 253.290,251.200 251.914,251.200 251.407 C 251.200 250.119,248.004 249.374,246.522 250.316 M160.292 253.700 C 165.499 259.336,159.495 270.327,154.218 264.819 C 152.114 262.622,152.001 256.185,154.028 253.907 C 155.357 252.413,158.992 252.293,160.292 253.700 M278.423 254.089 C 281.039 256.954,279.930 258.124,274.795 257.919 L 271.800 257.800 271.679 256.353 C 271.405 253.073,276.065 251.508,278.423 254.089 M127.579 257.168 C 128.778 257.338,129.823 257.668,129.901 257.902 C 129.978 258.135,130.393 258.730,130.821 259.224 C 133.452 262.258,129.982 265.993,124.529 265.997 C 120.115 266.001,119.937 265.804,120.086 261.074 C 120.226 256.612,120.962 256.229,127.579 257.168 " stroke="none" fill="#3255f3" fill-rule="evenodd"></path><path id="path2" d="M206.647 124.807 C 204.694 125.200,202.714 125.711,202.247 125.943 C 201.781 126.174,200.770 126.647,200.000 126.993 C 195.318 129.095,193.670 130.573,177.346 147.311 C 167.694 157.206,166.664 158.859,165.398 166.466 C 164.369 172.647,166.816 182.553,170.092 185.471 C 170.909 186.199,170.909 186.199,170.255 184.920 C 169.282 183.018,169.397 182.665,171.843 180.023 C 174.479 177.176,174.686 177.136,176.648 179.100 C 177.471 179.925,177.859 180.240,177.508 179.800 C 173.815 175.163,173.662 166.106,177.206 161.855 C 186.249 151.007,201.331 137.052,206.042 135.173 C 211.120 133.148,220.308 135.534,221.936 139.300 C 222.010 139.473,222.322 139.865,222.628 140.170 C 223.248 140.791,224.778 144.647,225.258 146.800 C 225.460 147.707,225.507 147.087,225.392 145.041 L 225.213 141.881 226.954 140.141 C 229.597 137.498,231.568 137.701,232.374 140.700 C 232.625 141.635,233.004 142.400,233.215 142.400 C 233.704 142.400,233.720 141.321,233.235 141.022 C 233.034 140.897,232.750 140.087,232.604 139.221 C 232.457 138.355,232.082 137.434,231.769 137.174 C 231.456 136.914,231.200 136.518,231.200 136.292 C 231.200 132.649,222.319 126.233,215.256 124.774 C 210.928 123.879,211.274 123.878,206.647 124.807 M202.600 158.272 C 201.940 158.356,200.680 158.711,199.800 159.059 C 195.151 160.902,194.089 161.675,188.852 167.022 C 183.429 172.559,182.803 173.438,183.117 175.076 C 183.300 176.036,184.800 177.228,184.800 176.414 C 184.800 176.186,184.641 176.000,184.447 176.000 C 182.336 176.000,184.052 173.501,190.592 167.054 C 195.862 161.858,196.150 161.600,196.680 161.600 C 196.906 161.600,197.521 161.267,198.046 160.860 C 198.571 160.454,199.810 159.994,200.800 159.840 C 201.790 159.686,202.980 159.311,203.444 159.007 C 203.908 158.704,204.988 158.383,205.844 158.295 C 207.349 158.140,207.341 158.134,205.600 158.127 C 204.610 158.123,203.260 158.189,202.600 158.272 M163.781 191.106 C 163.189 191.521,161.201 195.035,161.198 195.671 C 161.196 195.962,160.902 196.740,160.544 197.400 C 160.080 198.254,159.867 199.811,159.806 202.800 C 159.752 205.458,159.777 205.789,159.876 203.700 C 159.961 201.885,160.189 200.400,160.382 200.400 C 160.576 200.400,161.039 199.602,161.411 198.627 C 162.611 195.485,165.662 192.475,166.684 193.426 C 167.142 193.852,168.030 194.628,168.658 195.152 C 169.286 195.676,169.914 196.576,170.053 197.152 L 170.305 198.200 170.353 197.115 C 170.446 194.967,165.164 190.137,163.781 191.106 M139.677 246.500 C 139.742 249.601,139.776 249.779,139.891 247.600 C 140.037 244.829,140.575 244.000,142.225 244.000 C 143.425 244.000,143.573 245.488,143.629 258.101 C 143.656 264.147,143.824 268.309,144.037 268.177 C 144.596 267.832,144.501 245.060,143.936 243.819 C 143.531 242.931,143.222 242.800,141.536 242.800 L 139.600 242.800 139.677 246.500 M116.612 243.845 C 115.679 244.778,115.856 267.813,116.800 268.409 C 117.130 268.617,120.010 268.753,123.200 268.711 L 129.000 268.634 123.200 268.417 L 117.400 268.200 117.268 266.000 C 117.050 262.368,117.985 247.100,118.461 246.527 C 119.363 245.440,119.600 246.102,119.600 249.711 C 119.600 254.844,119.881 255.200,123.945 255.200 C 128.408 255.200,130.306 253.761,130.372 250.326 C 130.414 248.143,129.753 246.788,128.396 246.276 C 127.738 246.028,127.200 245.678,127.200 245.499 C 127.200 245.321,126.795 245.011,126.300 244.812 C 125.614 244.537,125.995 244.445,127.900 244.425 C 132.979 244.374,135.505 249.248,132.201 252.727 C 130.232 254.799,129.977 256.800,131.680 256.800 C 131.891 256.800,132.768 257.557,133.631 258.482 C 136.765 261.843,135.081 266.063,129.800 268.083 C 129.275 268.284,129.458 268.323,130.332 268.198 C 136.065 267.376,137.362 259.733,132.311 256.544 L 130.718 255.538 131.659 254.469 C 132.177 253.881,132.898 253.094,133.261 252.720 C 135.888 250.021,134.044 245.038,129.971 243.828 C 126.927 242.925,117.521 242.937,116.612 243.845 M128.887 247.967 C 131.541 250.937,129.083 254.395,124.316 254.399 C 120.790 254.401,119.322 251.687,120.777 247.860 C 121.538 245.860,127.070 245.933,128.887 247.967 M154.400 249.861 L 153.000 250.426 154.350 250.213 C 155.093 250.096,156.713 249.987,157.950 249.972 C 159.577 249.952,159.978 249.849,159.400 249.600 C 158.231 249.098,156.002 249.214,154.400 249.861 M149.493 253.708 C 149.112 254.178,148.800 254.730,148.800 254.935 C 148.800 255.140,149.181 254.824,149.646 254.233 C 150.111 253.642,150.423 253.089,150.339 253.006 C 150.255 252.922,149.875 253.238,149.493 253.708 M153.429 254.629 C 153.083 254.974,152.800 255.454,152.800 255.695 C 152.800 255.936,152.847 256.058,152.904 255.967 C 152.962 255.875,153.350 255.395,153.766 254.900 C 154.628 253.876,154.380 253.677,153.429 254.629 M148.534 259.200 C 148.534 260.850,148.605 261.525,148.691 260.700 C 148.778 259.875,148.778 258.525,148.691 257.700 C 148.605 256.875,148.534 257.550,148.534 259.200 M121.200 257.157 C 119.910 257.515,119.434 264.176,120.614 265.357 C 121.594 266.337,127.403 266.256,128.943 265.241 C 131.441 263.594,132.280 260.906,130.821 259.224 C 130.393 258.730,129.978 258.135,129.901 257.902 C 129.633 257.100,123.346 256.562,121.200 257.157 M129.153 258.252 C 133.015 260.957,130.117 265.600,124.568 265.600 C 121.251 265.600,120.252 264.464,120.476 260.946 C 120.583 259.259,120.845 258.216,121.221 257.979 C 122.258 257.322,128.114 257.524,129.153 258.252 M139.966 268.526 C 140.147 268.707,140.993 268.793,141.847 268.719 L 143.400 268.583 141.519 268.390 C 140.484 268.284,139.785 268.345,139.966 268.526 " stroke="none" fill="#af49f1" fill-rule="evenodd"></path><path id="path3" d="M232.635 139.200 C 232.776 139.970,233.097 140.853,233.346 141.161 C 235.362 143.654,233.610 155.639,230.556 160.239 C 228.737 162.980,228.543 162.959,225.183 159.666 L 222.394 156.931 223.176 155.366 C 224.866 151.980,225.199 150.809,225.178 148.340 C 225.163 146.724,224.867 145.145,224.363 144.000 C 223.927 143.010,223.679 142.650,223.811 143.200 C 224.798 147.305,224.236 152.512,222.540 154.989 C 221.545 156.443,221.933 157.356,224.700 160.066 C 228.949 164.227,228.989 164.226,231.719 159.867 C 234.807 154.935,235.681 145.095,233.464 140.200 C 232.602 138.296,232.430 138.090,232.635 139.200 M207.400 158.184 C 211.132 158.746,214.561 159.762,215.600 160.613 C 215.930 160.884,216.626 161.235,217.147 161.395 C 218.275 161.739,224.034 167.373,224.716 168.800 C 224.979 169.350,225.363 170.070,225.569 170.400 C 226.654 172.138,227.624 175.038,228.373 178.779 L 229.209 182.957 228.351 187.147 C 227.165 192.942,224.920 196.250,217.182 203.608 C 214.064 206.574,208.666 211.819,205.187 215.264 C 197.149 223.225,194.943 224.853,189.600 226.760 C 180.114 230.147,167.967 225.573,163.149 216.800 C 162.847 216.250,162.385 215.527,162.123 215.194 C 161.860 214.860,161.446 213.697,161.202 212.610 C 160.959 211.522,160.578 210.415,160.357 210.149 C 160.136 209.882,159.802 207.535,159.614 204.932 L 159.272 200.200 159.352 205.200 C 159.433 210.201,160.341 214.176,161.819 216.000 C 162.087 216.330,162.425 216.993,162.571 217.473 C 162.998 218.874,168.402 224.120,170.800 225.459 C 175.286 227.966,177.752 228.514,183.679 228.321 C 192.216 228.044,194.565 226.694,206.039 215.474 C 210.131 211.473,215.531 206.220,218.039 203.800 C 227.277 194.888,229.600 190.717,229.600 183.042 C 229.600 169.600,219.837 158.409,207.599 157.823 L 203.800 157.642 207.400 158.184 M198.717 158.982 C 196.383 159.952,194.304 161.200,195.022 161.200 C 195.242 161.200,195.796 160.938,196.253 160.618 C 197.337 159.859,200.184 158.802,202.200 158.411 L 203.800 158.100 202.400 158.067 C 201.630 158.049,199.973 158.461,198.717 158.982 M189.515 165.900 C 181.735 173.757,181.541 174.181,184.233 177.467 C 187.916 181.961,189.304 181.707,195.579 175.386 C 203.586 167.321,209.398 166.509,214.831 172.697 C 220.900 179.609,219.256 187.680,210.084 196.000 C 208.828 197.139,204.917 200.891,201.393 204.336 C 188.944 216.506,188.251 216.972,182.600 216.972 C 177.762 216.972,174.628 215.334,171.275 211.051 C 168.908 208.028,168.795 201.470,171.053 198.211 C 172.132 196.654,171.848 196.271,165.015 190.068 C 164.767 189.843,162.800 191.270,162.800 191.675 C 162.800 191.885,163.083 191.774,163.429 191.429 C 164.530 190.327,165.447 190.735,167.996 193.459 C 170.783 196.439,170.898 197.134,169.212 200.848 C 164.824 210.521,178.235 221.521,188.497 216.666 C 192.928 214.570,215.523 192.322,218.016 187.600 C 221.059 181.837,218.157 173.349,211.730 169.216 C 209.530 167.801,203.501 167.732,201.650 169.100 C 200.980 169.595,200.303 170.000,200.144 170.000 C 199.985 170.000,197.697 172.180,195.058 174.845 L 190.261 179.690 188.598 179.462 C 186.757 179.209,183.340 176.366,183.189 174.961 C 182.978 172.991,182.985 172.983,194.367 161.370 C 194.458 161.277,194.452 161.200,194.352 161.200 C 194.252 161.200,192.075 163.315,189.515 165.900 M175.200 175.325 C 175.200 176.851,179.109 182.128,180.932 183.062 C 181.629 183.419,182.301 183.868,182.425 184.058 C 182.771 184.591,187.036 185.601,188.920 185.596 C 192.082 185.588,196.766 183.477,198.430 181.311 C 198.793 180.838,198.644 180.887,197.988 181.457 C 191.269 187.284,179.591 184.654,176.205 176.551 C 175.742 175.441,175.200 174.780,175.200 175.325 M168.494 183.900 C 173.673 195.857,192.200 199.408,202.400 190.399 L 203.800 189.163 202.000 190.414 C 196.289 194.387,187.471 195.959,181.896 194.000 C 180.644 193.560,179.345 193.200,179.010 193.200 C 178.674 193.200,178.400 193.042,178.400 192.849 C 178.400 192.655,177.815 192.264,177.100 191.979 C 175.587 191.377,169.947 185.832,169.016 184.031 C 168.226 182.503,167.847 182.408,168.494 183.900 M160.501 196.456 C 160.233 197.166,160.096 197.829,160.196 197.929 C 160.434 198.168,161.261 195.984,161.107 195.522 C 161.042 195.326,160.769 195.746,160.501 196.456 M237.998 241.494 C 235.872 244.196,239.059 247.486,242.092 245.722 C 244.813 244.139,243.595 240.400,240.359 240.400 C 239.200 240.400,238.662 240.649,237.998 241.494 M242.264 241.902 C 243.245 243.229,242.817 244.680,241.335 245.052 C 238.677 245.719,237.077 243.634,238.821 241.778 C 240.026 240.495,241.257 240.540,242.264 241.902 M139.382 242.903 C 139.275 243.180,139.236 249.165,139.294 256.203 L 139.400 269.000 141.168 269.126 C 142.140 269.196,143.355 269.147,143.868 269.019 L 144.800 268.785 144.800 256.006 C 144.800 243.782,144.766 243.210,144.026 242.814 C 142.925 242.224,139.618 242.288,139.382 242.903 M191.190 243.426 C 190.969 244.008,190.800 249.544,190.800 256.226 C 190.800 269.874,190.727 269.600,194.386 269.600 C 196.839 269.600,197.200 269.069,197.200 265.459 C 197.200 260.934,197.827 260.958,200.882 265.600 C 203.332 269.324,203.712 269.600,206.389 269.600 C 209.536 269.600,209.766 268.917,207.683 265.747 C 202.222 257.433,202.346 258.417,206.198 254.000 C 209.576 250.128,209.559 249.445,206.080 249.280 C 203.292 249.148,203.536 248.987,199.400 253.696 C 197.258 256.135,197.200 256.023,197.200 249.409 C 197.200 242.116,197.324 242.400,194.147 242.400 C 191.760 242.400,191.553 242.472,191.190 243.426 M212.480 242.880 C 211.640 243.720,211.810 268.544,212.661 269.251 C 213.694 270.108,223.143 270.003,226.054 269.102 C 237.361 265.602,237.902 247.280,226.819 243.239 C 224.099 242.247,213.381 241.979,212.480 242.880 M116.700 243.232 C 116.315 243.456,116.000 243.824,116.000 244.048 C 116.000 244.273,116.283 244.174,116.629 243.829 C 117.521 242.936,126.966 242.936,129.971 243.828 C 134.044 245.038,135.888 250.021,133.261 252.720 C 132.898 253.094,132.177 253.881,131.659 254.469 L 130.718 255.538 132.311 256.544 C 136.270 259.043,136.730 263.287,133.392 266.529 C 131.499 268.368,129.446 268.802,122.680 268.794 C 117.323 268.788,116.699 268.671,116.292 267.600 C 116.134 267.185,116.053 267.265,116.032 267.857 C 115.936 270.456,130.969 269.670,133.792 266.929 C 136.856 263.953,136.695 258.292,133.505 256.868 C 131.656 256.043,131.560 255.446,132.988 253.656 C 136.194 249.640,134.950 245.045,130.229 243.461 C 127.965 242.702,117.903 242.532,116.700 243.232 M143.936 243.819 C 144.254 244.517,144.400 248.479,144.400 256.405 C 144.400 269.439,144.513 268.991,141.283 268.723 L 139.800 268.600 139.694 255.700 L 139.589 242.800 141.530 242.800 C 143.222 242.800,143.531 242.931,143.936 243.819 M196.400 249.200 C 196.683 257.986,197.040 258.252,201.221 252.804 C 203.340 250.044,205.636 249.147,207.523 250.344 C 207.973 250.629,204.887 255.009,203.532 256.008 C 203.226 256.234,202.400 258.251,202.400 258.774 C 202.400 258.951,203.577 260.856,205.015 263.008 C 208.375 268.033,208.457 268.600,205.827 268.600 L 203.854 268.600 201.710 265.432 C 197.612 259.377,196.769 259.340,196.409 265.200 C 196.181 268.905,195.755 269.327,192.952 268.624 L 192.000 268.385 192.005 256.492 C 192.012 242.188,191.920 242.723,194.352 242.880 L 196.200 243.000 196.400 249.200 M225.748 243.789 C 235.726 246.173,237.089 262.010,227.800 267.632 C 226.279 268.552,225.875 268.600,219.600 268.600 L 213.000 268.600 212.894 256.404 C 212.836 249.696,212.875 243.981,212.981 243.704 C 213.255 242.990,222.666 243.053,225.748 243.789 M124.716 246.764 C 131.435 247.611,131.014 254.000,124.240 254.000 C 121.099 254.000,119.725 251.070,121.379 247.900 C 121.694 247.295,121.779 246.800,121.566 246.800 C 120.955 246.800,120.400 248.681,120.400 250.751 C 120.400 253.512,121.354 254.400,124.316 254.399 C 131.514 254.394,132.155 246.938,124.987 246.584 L 122.200 246.447 124.716 246.764 M218.400 247.092 C 217.298 247.511,217.212 248.158,217.206 256.051 C 217.199 264.801,217.172 264.711,219.950 265.084 C 228.012 266.165,232.721 256.221,227.342 249.475 C 225.704 247.421,220.898 246.140,218.400 247.092 M224.643 248.416 C 228.982 250.066,229.957 259.448,226.139 262.800 C 224.634 264.122,219.170 264.610,218.080 263.520 C 217.285 262.725,217.418 249.440,218.229 248.629 C 218.965 247.892,222.920 247.761,224.643 248.416 M274.000 248.807 C 261.844 251.265,263.470 270.400,275.835 270.400 C 279.529 270.400,285.282 266.272,284.120 264.455 C 283.482 263.456,279.165 263.546,278.021 264.581 C 276.181 266.246,271.759 264.480,272.084 262.210 C 272.193 261.448,272.521 261.394,277.600 261.303 C 285.147 261.166,284.800 261.313,284.800 258.252 C 284.800 252.270,279.555 247.683,274.000 248.807 M153.368 249.559 C 148.694 251.681,146.537 257.761,148.315 263.800 C 150.669 271.796,162.830 272.200,166.366 264.400 C 170.482 255.323,161.999 245.639,153.368 249.559 M175.000 249.666 C 170.520 251.992,168.606 257.207,170.062 263.123 C 172.113 271.456,183.995 272.651,187.938 264.922 C 189.580 261.703,185.264 260.642,182.356 263.549 C 179.705 266.201,177.231 265.686,175.765 262.178 C 173.427 256.582,178.299 251.125,182.173 255.000 C 184.666 257.492,188.830 256.878,187.848 254.163 C 186.181 249.555,179.629 247.263,175.000 249.666 M237.823 249.689 C 237.049 250.794,236.896 266.895,237.644 268.537 C 238.470 270.349,242.591 270.285,243.576 268.445 C 243.837 267.958,244.000 264.368,244.000 259.115 C 244.000 248.918,243.961 248.800,240.600 248.800 C 238.827 248.800,238.335 248.957,237.823 249.689 M160.229 249.852 C 168.678 252.648,168.788 265.854,160.387 268.935 C 158.419 269.657,155.386 269.824,155.019 269.231 C 154.894 269.028,154.298 268.748,153.695 268.610 C 149.245 267.588,146.475 257.634,149.522 253.614 C 152.525 249.651,155.966 248.442,160.229 249.852 M245.349 250.260 C 245.182 250.927,245.323 251.781,245.728 252.560 C 246.330 253.716,246.828 255.006,248.213 259.000 C 248.518 259.880,249.238 261.860,249.813 263.400 C 250.387 264.940,251.037 266.799,251.256 267.532 C 252.284 270.963,258.534 270.800,259.526 267.317 C 260.142 265.154,261.542 261.218,262.221 259.740 C 262.539 259.046,262.800 258.141,262.800 257.729 C 262.800 257.316,263.047 256.623,263.349 256.189 C 263.651 255.755,264.028 254.770,264.188 254.000 C 264.348 253.230,264.736 252.193,265.051 251.696 C 266.093 250.052,265.186 249.200,262.395 249.200 C 259.299 249.200,259.480 248.924,256.587 258.095 L 255.485 261.590 254.588 259.654 C 254.095 258.590,253.486 256.759,253.234 255.587 C 252.983 254.414,252.627 253.262,252.444 253.027 C 252.260 252.792,251.981 252.061,251.823 251.402 C 251.360 249.471,250.908 249.200,248.159 249.200 C 245.741 249.200,245.602 249.252,245.349 250.260 M182.600 250.046 C 184.744 250.639,187.291 253.283,187.123 254.741 C 186.926 256.436,184.231 256.151,182.311 254.231 C 178.732 250.652,174.800 253.416,174.800 259.511 L 174.800 262.894 176.353 264.447 C 178.548 266.642,180.326 266.629,182.446 264.400 C 184.815 261.909,188.150 262.097,187.176 264.666 C 185.346 269.496,177.933 270.981,173.582 267.389 C 169.225 263.793,169.217 255.058,173.567 251.411 C 175.550 249.749,179.411 249.165,182.600 250.046 M242.700 250.503 C 243.072 250.797,243.200 253.083,243.200 259.435 C 243.200 268.841,243.211 268.800,240.600 268.800 C 237.982 268.800,238.000 268.865,238.000 259.219 L 238.000 250.467 239.085 250.105 C 240.278 249.707,241.923 249.888,242.700 250.503 M278.833 250.131 C 281.770 251.093,283.720 253.819,284.196 257.631 C 284.580 260.707,284.475 260.757,277.372 260.889 L 271.400 261.000 271.512 262.375 C 271.761 265.446,276.171 267.182,278.691 265.200 C 279.734 264.380,283.600 264.024,283.600 264.749 C 283.600 267.766,276.733 270.369,272.642 268.902 C 260.930 264.704,267.013 246.260,278.833 250.131 M250.567 250.243 C 250.915 250.376,251.200 250.900,251.200 251.407 C 251.200 251.914,251.534 253.290,251.943 254.464 C 252.352 255.639,252.999 257.590,253.381 258.800 C 254.728 263.068,256.031 263.771,256.635 260.555 C 256.776 259.805,257.038 259.100,257.218 258.989 C 257.399 258.877,257.758 257.754,258.016 256.493 C 258.275 255.232,258.630 254.020,258.804 253.800 C 258.979 253.580,259.326 252.635,259.576 251.700 C 260.020 250.039,260.070 250.000,261.715 250.006 C 264.523 250.016,264.892 251.357,263.032 254.800 C 262.735 255.350,262.361 256.430,262.200 257.200 C 262.039 257.970,261.762 258.782,261.583 259.005 C 261.405 259.228,261.036 260.308,260.764 261.405 C 260.492 262.502,260.042 263.760,259.764 264.200 C 259.486 264.640,259.135 265.680,258.983 266.511 C 258.364 269.899,252.643 269.813,251.660 266.400 C 251.439 265.630,250.787 263.740,250.213 262.200 C 249.638 260.660,248.920 258.680,248.617 257.800 C 248.314 256.920,247.611 254.945,247.055 253.410 C 246.302 251.333,246.165 250.543,246.522 250.316 C 247.097 249.951,249.683 249.904,250.567 250.243 M155.298 253.131 C 152.337 255.011,151.776 261.418,154.296 264.575 C 156.209 266.971,160.774 266.052,161.413 263.143 C 161.550 262.519,161.828 261.906,162.031 261.781 C 163.275 261.012,161.736 255.051,159.925 253.627 C 158.853 252.784,156.280 252.508,155.298 253.131 M272.810 253.853 C 271.766 254.731,271.578 255.147,271.679 256.353 L 271.800 257.800 274.795 257.919 C 278.853 258.081,279.600 257.858,279.600 256.482 C 279.600 253.324,275.380 251.691,272.810 253.853 M159.530 254.202 C 161.985 256.268,162.126 262.215,159.772 264.426 C 158.527 265.596,156.381 265.669,155.179 264.581 C 150.478 260.327,154.737 250.169,159.530 254.202 M278.002 254.602 C 279.633 256.338,278.987 256.985,275.496 257.117 L 272.400 257.234 272.400 256.113 C 272.400 253.611,276.127 252.606,278.002 254.602 M121.221 257.979 C 120.061 258.712,120.144 263.380,121.337 264.573 C 124.476 267.713,132.250 264.087,130.640 260.234 C 129.647 257.857,123.674 256.427,121.221 257.979 M129.278 259.216 C 132.421 262.359,126.030 267.125,122.100 264.567 C 121.049 263.884,120.718 258.661,121.700 258.265 C 123.664 257.473,128.090 258.028,129.278 259.216 " stroke="none" fill="#939ffa" fill-rule="evenodd"></path><path id="path4" d="M204.800 124.416 C 203.370 124.805,201.480 125.458,200.600 125.868 C 199.036 126.597,198.260 127.053,195.000 129.164 C 192.770 130.608,172.382 151.128,169.132 155.200 C 162.097 164.014,162.955 179.404,170.975 188.267 C 173.088 190.602,177.569 194.006,178.513 193.993 C 178.781 193.989,178.181 193.494,177.180 192.893 C 165.415 185.828,161.361 167.897,168.946 156.474 C 170.302 154.432,187.767 136.402,193.052 131.590 C 195.121 129.705,197.614 128.059,200.000 127.001 C 200.770 126.659,201.716 126.202,202.101 125.986 C 204.425 124.680,211.175 123.954,214.715 124.630 C 226.597 126.898,234.401 136.029,234.859 148.200 C 234.927 150.005,234.950 150.051,235.093 148.666 C 235.327 146.414,234.545 140.729,233.815 139.373 C 233.468 138.728,233.000 137.750,232.775 137.200 C 228.746 127.354,215.780 121.428,204.800 124.416 M208.723 134.411 C 205.774 134.908,201.811 137.098,198.677 139.963 C 192.759 145.373,180.672 157.698,177.206 161.855 C 172.193 167.868,174.719 178.594,182.177 182.966 C 184.814 184.511,184.905 184.214,182.320 182.500 C 179.955 180.932,177.121 177.710,176.604 176.000 C 176.438 175.450,176.099 174.747,175.851 174.439 C 175.139 173.552,175.281 167.255,176.051 165.600 C 176.410 164.830,176.770 163.974,176.852 163.698 C 177.414 161.807,199.779 139.279,202.879 137.481 C 214.423 130.784,226.230 138.738,223.429 151.326 C 223.061 152.981,222.499 154.552,222.180 154.817 C 220.616 156.115,223.618 160.754,227.740 163.410 L 228.879 164.144 230.225 162.572 C 230.965 161.707,231.577 160.832,231.585 160.627 C 231.593 160.422,231.029 160.997,230.332 161.905 C 228.784 163.918,228.558 163.844,224.700 160.066 C 221.935 157.358,221.547 156.447,222.535 154.989 C 228.849 145.671,220.014 132.508,208.723 134.411 M234.400 151.952 C 234.400 153.506,232.743 158.491,231.866 159.577 C 231.501 160.029,231.513 160.086,231.921 159.840 C 233.267 159.030,235.767 150.400,234.656 150.400 C 234.515 150.400,234.400 151.099,234.400 151.952 M201.200 157.580 C 200.210 157.768,198.860 158.209,198.200 158.559 C 197.540 158.909,196.873 159.196,196.718 159.198 C 194.996 159.213,184.092 169.854,182.165 173.400 C 181.352 174.896,183.279 177.840,186.458 179.961 C 189.428 181.942,189.674 181.836,195.457 176.090 C 200.552 171.027,202.492 169.648,205.200 169.164 L 206.600 168.914 205.293 168.857 C 203.063 168.760,200.341 170.589,195.579 175.386 C 189.304 181.707,187.916 181.961,184.233 177.467 C 181.542 174.182,181.736 173.755,189.504 165.911 C 201.045 154.257,215.249 154.857,224.736 167.400 C 225.488 168.393,225.561 168.428,225.163 167.600 C 221.890 160.790,210.145 155.880,201.200 157.580 M208.520 169.186 C 209.357 169.348,210.248 169.688,210.500 169.940 C 210.753 170.193,211.149 170.399,211.380 170.397 C 211.611 170.396,211.260 170.037,210.600 169.600 C 209.940 169.163,208.860 168.825,208.200 168.849 C 207.102 168.888,207.130 168.917,208.520 169.186 M213.600 172.087 C 214.590 173.063,215.732 174.297,216.137 174.830 C 216.867 175.791,216.867 175.788,216.185 174.600 C 215.301 173.060,213.623 171.245,212.600 170.722 C 212.160 170.498,212.610 171.112,213.600 172.087 M226.817 170.856 C 226.808 170.997,227.156 171.897,227.591 172.856 C 228.026 173.815,228.379 174.330,228.374 174.000 C 228.367 173.413,226.850 170.351,226.817 170.856 M205.442 174.065 C 204.709 174.490,200.015 179.178,199.099 180.400 C 198.851 180.730,200.168 179.529,202.024 177.731 C 203.881 175.932,205.762 174.405,206.204 174.336 C 207.140 174.191,210.800 176.220,210.800 176.884 C 210.800 177.131,210.916 177.218,211.057 177.076 C 211.465 176.669,210.473 175.709,208.511 174.613 C 206.457 173.465,206.471 173.467,205.442 174.065 M228.856 176.800 C 228.856 177.130,229.011 177.760,229.200 178.200 C 229.417 178.704,229.544 178.778,229.544 178.400 C 229.544 178.070,229.389 177.440,229.200 177.000 C 228.983 176.496,228.856 176.422,228.856 176.800 M217.214 177.254 C 217.206 177.394,217.463 178.114,217.784 178.854 C 218.106 179.594,218.369 179.930,218.370 179.600 C 218.372 179.024,217.243 176.734,217.214 177.254 M211.301 179.400 C 211.305 180.280,211.387 180.593,211.483 180.095 C 211.579 179.598,211.575 178.878,211.475 178.495 C 211.375 178.113,211.296 178.520,211.301 179.400 M195.809 182.411 C 194.493 183.285,193.526 184.000,193.658 184.000 C 194.137 184.000,197.535 181.960,198.011 181.387 C 198.723 180.528,198.455 180.653,195.809 182.411 M229.724 183.000 C 229.726 184.320,229.801 184.812,229.890 184.093 C 229.979 183.374,229.977 182.294,229.886 181.693 C 229.795 181.092,229.722 181.680,229.724 183.000 M208.951 184.100 C 207.392 185.878,207.098 186.568,208.534 185.078 C 209.876 183.685,210.220 183.200,209.870 183.200 C 209.798 183.200,209.385 183.605,208.951 184.100 M187.907 184.690 C 188.626 184.779,189.706 184.777,190.307 184.686 C 190.908 184.595,190.320 184.522,189.000 184.524 C 187.680 184.526,187.188 184.601,187.907 184.690 M203.585 189.629 L 202.200 190.858 203.700 189.781 C 205.026 188.830,205.457 188.400,205.085 188.400 C 205.022 188.400,204.347 188.953,203.585 189.629 M163.319 190.300 C 162.255 191.304,161.773 192.160,159.875 196.414 C 159.001 198.372,158.370 204.151,158.740 206.800 C 159.016 208.767,159.071 208.471,159.267 204.000 C 159.494 198.826,160.361 195.503,162.075 193.246 C 162.474 192.721,162.800 192.067,162.800 191.792 C 162.800 191.304,164.726 189.806,165.015 190.068 C 171.848 196.271,172.132 196.654,171.053 198.211 C 169.327 200.702,168.862 205.115,170.000 208.200 C 170.919 210.691,170.992 210.256,170.180 207.124 C 169.494 204.477,170.226 199.374,171.436 198.370 C 172.702 197.319,172.067 196.054,168.536 192.594 C 164.589 188.726,164.860 188.845,163.319 190.300 M200.441 191.834 C 199.693 192.365,199.278 192.800,199.519 192.800 C 199.759 192.800,200.460 192.356,201.078 191.813 C 202.491 190.569,202.208 190.579,200.441 191.834 M211.385 194.500 L 209.400 196.600 211.500 194.615 C 213.451 192.771,213.783 192.400,213.485 192.400 C 213.422 192.400,212.477 193.345,211.385 194.500 M180.600 194.822 C 181.480 195.238,182.740 195.563,183.400 195.544 C 184.581 195.509,184.578 195.503,183.200 195.209 C 182.430 195.045,181.293 194.705,180.674 194.455 C 178.890 193.734,178.839 193.988,180.600 194.822 M194.271 194.662 C 194.127 194.806,193.332 195.071,192.504 195.249 L 191.000 195.574 192.748 195.418 C 194.255 195.285,196.165 194.400,194.947 194.400 C 194.719 194.400,194.415 194.518,194.271 194.662 M186.291 195.889 C 187.001 195.977,188.261 195.979,189.091 195.892 C 189.921 195.805,189.340 195.733,187.800 195.731 C 186.260 195.729,185.581 195.800,186.291 195.889 M198.981 206.500 L 197.400 208.200 199.100 206.619 C 200.681 205.148,200.984 204.800,200.681 204.800 C 200.616 204.800,199.851 205.565,198.981 206.500 M159.241 210.224 C 159.218 210.896,159.485 211.796,159.833 212.224 C 160.456 212.989,160.461 212.989,160.183 212.200 C 160.028 211.760,159.762 210.860,159.591 210.200 L 159.282 209.000 159.241 210.224 M171.167 210.900 C 172.666 212.782,173.997 214.090,173.612 213.300 C 173.370 212.805,173.027 212.400,172.850 212.400 C 172.673 212.400,172.323 211.950,172.073 211.400 C 171.822 210.850,171.426 210.400,171.193 210.400 C 170.908 210.400,170.899 210.564,171.167 210.900 M160.629 214.200 C 160.757 214.860,161.118 215.684,161.431 216.031 C 161.744 216.379,162.000 216.841,162.000 217.059 C 162.000 217.597,164.488 220.800,164.906 220.800 C 165.090 220.800,164.691 220.215,164.019 219.500 C 163.348 218.785,162.687 217.840,162.552 217.400 C 162.416 216.960,162.080 216.330,161.805 216.000 C 161.530 215.670,161.100 214.860,160.850 214.200 L 160.395 213.000 160.629 214.200 M177.200 216.000 C 177.970 216.422,178.780 216.766,179.000 216.766 C 179.220 216.766,178.770 216.422,178.000 216.000 C 177.230 215.578,176.420 215.234,176.200 215.234 C 175.980 215.234,176.430 215.578,177.200 216.000 M181.507 217.090 C 182.226 217.179,183.306 217.177,183.907 217.086 C 184.508 216.995,183.920 216.922,182.600 216.924 C 181.280 216.926,180.788 217.001,181.507 217.090 M181.111 228.693 C 182.051 228.778,183.491 228.777,184.311 228.691 C 185.130 228.605,184.360 228.536,182.600 228.537 C 180.840 228.539,180.170 228.609,181.111 228.693 M116.815 242.333 C 115.362 242.769,115.283 243.480,115.240 256.500 C 115.190 271.240,114.553 270.000,122.180 270.000 C 128.733 270.000,131.384 269.401,133.876 267.359 C 137.632 264.281,137.285 257.900,133.260 256.020 L 132.320 255.581 133.411 254.150 C 136.650 249.904,135.744 245.557,131.117 243.135 C 129.309 242.189,119.186 241.621,116.815 242.333 M139.280 242.480 C 138.593 243.167,138.593 268.833,139.280 269.520 C 139.946 270.186,143.677 270.124,144.624 269.432 C 145.831 268.549,145.831 243.450,144.624 242.568 C 143.677 241.876,139.945 241.815,139.280 242.480 M193.107 242.290 C 193.826 242.379,194.906 242.377,195.507 242.286 C 196.108 242.195,195.520 242.122,194.200 242.124 C 192.880 242.126,192.388 242.201,193.107 242.290 M215.682 242.296 C 217.158 242.373,219.678 242.373,221.282 242.297 C 222.887 242.221,221.680 242.158,218.600 242.158 C 215.520 242.157,214.207 242.219,215.682 242.296 M144.026 242.814 C 144.766 243.210,144.800 243.782,144.800 256.006 L 144.800 268.785 143.868 269.019 C 143.355 269.147,142.140 269.196,141.168 269.126 L 139.400 269.000 139.294 256.203 C 139.236 249.165,139.275 243.180,139.382 242.903 C 139.618 242.288,142.925 242.224,144.026 242.814 M130.229 243.461 C 134.950 245.045,136.194 249.640,132.988 253.656 C 131.560 255.446,131.656 256.043,133.505 256.868 C 138.253 258.988,135.976 267.567,130.345 268.774 C 128.238 269.226,117.700 269.367,116.633 268.957 C 115.615 268.567,115.680 243.826,116.700 243.232 C 117.903 242.532,127.965 242.702,130.229 243.461 M197.288 249.233 C 197.181 256.341,197.399 256.551,200.581 252.400 C 201.003 251.850,200.694 252.075,199.894 252.900 C 197.722 255.142,197.636 254.998,197.499 248.900 L 197.375 243.400 197.288 249.233 M190.488 255.926 C 190.382 270.065,190.359 269.982,194.277 269.994 C 197.021 270.002,197.600 269.221,197.600 265.511 C 197.600 262.595,197.614 262.572,198.926 263.254 C 199.709 263.660,199.696 263.607,198.800 262.746 C 197.497 261.493,197.214 261.951,197.206 265.326 C 197.198 269.049,196.844 269.600,194.462 269.600 C 190.880 269.600,191.029 270.139,190.788 256.333 L 190.577 244.200 190.488 255.926 M121.614 247.383 C 120.615 248.587,120.577 252.177,121.554 253.154 C 123.893 255.493,129.600 253.295,129.600 250.056 C 129.600 247.695,123.148 245.535,121.614 247.383 M127.641 248.232 C 130.360 250.678,128.841 253.200,124.647 253.200 C 121.674 253.200,120.760 251.461,122.009 248.177 C 122.517 246.840,126.133 246.876,127.641 248.232 M152.696 249.268 C 145.338 253.253,145.406 265.699,152.806 269.556 C 156.211 271.331,161.886 270.478,164.576 267.787 C 168.813 263.551,168.645 254.526,164.259 250.823 C 161.145 248.194,155.965 247.498,152.696 249.268 M174.994 249.208 C 174.111 249.615,172.941 250.449,172.394 251.062 C 171.691 251.850,171.634 252.004,172.200 251.588 C 172.640 251.265,173.090 250.889,173.200 250.754 C 176.465 246.734,185.959 248.944,187.848 254.163 C 188.830 256.878,184.666 257.492,182.173 255.000 C 181.403 254.230,180.464 253.604,180.087 253.609 C 179.679 253.615,179.920 253.875,180.681 254.250 C 181.385 254.597,182.244 255.313,182.590 255.841 C 184.292 258.439,189.345 256.752,188.234 253.957 C 186.334 249.175,179.996 246.902,174.994 249.208 M161.913 249.760 C 169.235 253.487,169.235 265.313,161.913 269.040 C 156.780 271.653,149.840 268.979,148.315 263.800 C 145.387 253.853,153.499 245.477,161.913 249.760 M203.472 249.083 C 203.363 249.257,204.473 249.400,205.937 249.400 C 209.473 249.400,209.615 250.107,206.740 253.403 C 204.266 256.240,203.240 257.644,205.120 255.621 C 210.265 250.082,210.449 249.064,206.334 248.883 C 204.868 248.818,203.580 248.908,203.472 249.083 M246.900 249.087 C 247.505 249.178,248.495 249.178,249.100 249.087 C 249.705 248.995,249.210 248.920,248.000 248.920 C 246.790 248.920,246.295 248.995,246.900 249.087 M261.500 249.082 C 261.995 249.178,262.805 249.178,263.300 249.082 C 263.795 248.987,263.390 248.909,262.400 248.909 C 261.410 248.909,261.005 248.987,261.500 249.082 M217.765 256.200 C 217.766 260.160,217.826 261.726,217.898 259.680 C 217.971 257.634,217.971 254.394,217.898 252.480 C 217.824 250.566,217.765 252.240,217.765 256.200 M170.719 253.100 C 169.278 254.768,168.475 259.974,169.346 262.000 L 169.949 263.400 169.720 261.113 C 169.452 258.442,170.198 254.105,171.098 253.100 C 171.442 252.715,171.634 252.400,171.524 252.400 C 171.414 252.400,171.052 252.715,170.719 253.100 M155.446 254.035 C 151.491 257.146,152.915 265.360,157.409 265.360 C 159.328 265.360,160.657 263.984,161.236 261.397 C 162.439 256.021,158.801 251.396,155.446 254.035 M159.312 254.539 C 161.417 256.262,161.526 262.772,159.473 264.114 C 157.444 265.440,156.838 265.370,155.172 263.619 C 151.257 259.504,155.095 251.087,159.312 254.539 M177.715 253.860 C 177.098 254.110,175.438 256.771,175.722 257.055 C 175.839 257.173,176.147 256.848,176.405 256.334 C 176.664 255.820,177.353 254.996,177.938 254.502 C 178.930 253.663,178.841 253.403,177.715 253.860 M277.947 254.898 C 278.248 255.282,278.400 255.957,278.285 256.398 C 278.169 256.840,278.238 257.100,278.437 256.977 C 279.039 256.605,278.846 255.334,278.100 254.749 C 277.466 254.252,277.452 254.266,277.947 254.898 M175.314 259.400 C 175.317 260.500,175.395 260.903,175.487 260.295 C 175.579 259.686,175.577 258.786,175.482 258.295 C 175.387 257.803,175.311 258.300,175.314 259.400 M284.901 259.000 C 284.905 259.880,284.987 260.193,285.083 259.695 C 285.179 259.198,285.175 258.478,285.075 258.095 C 284.975 257.713,284.896 258.120,284.901 259.000 M121.700 258.265 C 120.718 258.661,121.049 263.884,122.100 264.567 C 123.321 265.362,128.186 264.792,129.247 263.730 C 132.582 260.396,126.798 256.208,121.700 258.265 M128.725 259.216 C 130.857 261.203,129.584 263.795,126.272 264.208 C 122.111 264.728,121.218 263.945,121.770 260.263 L 122.049 258.400 124.949 258.400 C 127.315 258.400,128.010 258.550,128.725 259.216 M175.624 261.811 C 175.594 262.333,176.727 264.046,177.535 264.700 C 178.997 265.883,181.514 264.949,183.200 262.600 C 183.515 262.160,183.075 262.475,182.220 263.300 C 179.871 265.568,177.993 265.222,176.124 262.176 C 175.861 261.749,175.636 261.585,175.624 261.811 M186.161 261.991 C 188.635 262.445,188.942 262.953,187.938 264.922 C 186.691 267.367,184.138 269.359,181.400 270.026 C 180.424 270.264,180.371 270.326,181.116 270.359 C 183.389 270.461,186.785 267.971,188.221 265.151 C 189.446 262.744,188.982 261.979,186.176 261.775 L 184.200 261.631 186.161 261.991 M170.049 264.200 C 169.939 266.204,175.085 270.450,177.512 270.359 L 178.600 270.318 177.400 270.025 C 174.280 269.262,170.862 266.460,170.294 264.200 L 170.093 263.400 170.049 264.200 M207.473 265.500 C 208.445 267.046,209.600 268.552,209.600 268.274 C 209.600 267.948,207.184 264.400,206.962 264.400 C 206.863 264.400,207.093 264.895,207.473 265.500 M230.575 266.500 L 229.400 267.800 230.700 266.625 C 231.415 265.979,232.000 265.394,232.000 265.325 C 232.000 265.016,231.670 265.288,230.575 266.500 M268.400 267.400 C 269.146 268.170,269.847 268.800,269.957 268.800 C 270.067 268.800,269.546 268.170,268.800 267.400 C 268.054 266.630,267.353 266.000,267.243 266.000 C 267.133 266.000,267.654 266.630,268.400 267.400 M208.800 269.167 C 208.800 269.530,208.094 269.631,206.237 269.534 C 204.827 269.460,203.758 269.535,203.861 269.700 C 204.150 270.166,208.720 270.053,209.016 269.573 C 209.161 269.339,209.172 269.039,209.040 268.907 C 208.908 268.775,208.800 268.892,208.800 269.167 M212.349 269.300 C 212.652 269.686,213.370 269.976,213.949 269.946 L 215.000 269.891 214.000 269.707 C 213.450 269.606,212.730 269.316,212.400 269.062 C 211.878 268.660,211.871 268.691,212.349 269.300 " stroke="none" fill="#bda7fc" fill-rule="evenodd"></path><path id="path5" d="M206.170 174.307 C 205.713 174.379,203.643 176.164,201.570 178.275 C 199.496 180.386,197.108 182.551,196.262 183.085 C 195.416 183.620,194.796 184.130,194.884 184.217 C 195.098 184.432,198.463 182.766,199.129 182.116 C 199.419 181.832,199.810 181.600,199.996 181.600 C 200.182 181.600,200.608 181.495,200.941 181.367 C 201.609 181.111,203.373 183.557,203.828 185.371 C 204.124 186.548,202.816 188.587,200.509 190.546 C 198.305 192.417,199.363 192.240,202.082 190.284 C 209.398 185.017,212.900 179.505,210.700 176.720 C 209.868 175.666,207.054 174.168,206.170 174.307 " stroke="none" fill="#7c8494" fill-rule="evenodd"></path><path id="path6" d="" stroke="none" fill="#dcdc100" fill-rule="evenodd"></path><path id="path7" d="" stroke="none" fill="#dcdc100" fill-rule="evenodd"></path><path id="path8" d="" stroke="none" fill="#dcdc100" fill-rule="evenodd"></path></g></svg>